<svg xmlns="http://www.w3.org/2000/svg" viewBox="0 0 116 116" role="img" aria-label="Whatnot">
  <path fill="#282527" d="M115.14,57.57c0,44.51-13.06,57.57-57.57,57.57S0,102.08,0,57.57,13.06,0,57.57,0s57.57,13.06,57.57,57.57"/>
  <path fill="#FFE406" d="M44.86,84.19c5.86,0,9.34-6.08,7.01-15.55l-.66-2.69c-.35-1.5,1.06-2.07,1.85-.75l3.79,6.12c6.48,10.49,9.12,12.87,13.97,12.87,4.58,0,8.37-3.08,15.33-13.97l3.35-5.24c4.89-7.67,6.87-11.59,6.87-16.7,0-6.43-4.71-11.68-11.9-11.68-5.51,0-8.94,2.42-11.98,8.5l-.79,1.59c-.53,1.1-1.67,1.01-2.07,0l-.57-1.54c-2.16-5.77-5.9-8.55-11.5-8.55s-9.16,2.78-11.37,8.55l-.57,1.5c-.4,1.06-1.45,1.15-2.07,0l-.79-1.54c-3.08-6.04-6.61-8.5-12.12-8.5-7.18,0-11.85,5.24-11.85,11.68,0,5.11,1.85,9.03,6.83,16.57l3.26,4.93c7.84,11.9,11.46,14.41,15.99,14.41Z"/>
</svg>
